<svg xmlns="http://www.w3.org/2000/svg" viewBox="0 0 32 32" fill="none" aria-hidden="true">
  <path d="M8 8H24L28 14L16 28L4 14Z" fill="#003580" opacity=".14" transform="translate(0 1.1)"/>
  <path d="M11.5 8H20.5L20 14H12Z" fill="#edf3fc"/>
  <path d="M8 8H11.5L12 14H4Z" fill="#bcd6f2"/>
  <path d="M20.5 8H24L28 14H20Z" fill="#86b3e8"/>
  <path d="M4 14H12L16 28Z" fill="#3570cf"/>
  <path d="M12 14H16V28Z" fill="#4884e4"/>
  <path d="M16 14H20L16 28Z" fill="#2359ab"/>
  <path d="M20 14H28L16 28Z" fill="#103f88"/>
  <g stroke="#003580" stroke-linejoin="round" stroke-linecap="round" fill="none">
    <path d="M8 8H24L28 14L16 28L4 14Z" stroke-width="1.3"/>
    <g stroke-width=".7" opacity=".5">
      <path d="M4 14H28"/>
      <path d="M11.5 8L12 14M20.5 8L20 14"/>
      <path d="M16 14V28M12 14L16 28M20 14L16 28"/>
    </g>
  </g>
  <path d="M12.6 9.5H14.9M12.7 9.5L13 11.3" stroke="#ffffff" stroke-width="1.1" stroke-linecap="round" opacity=".9" fill="none"/>
</svg>
